<?xml version="1.0" standalone="no"?>
<!DOCTYPE svg PUBLIC "-//W3C//DTD SVG 20010904//EN"
 "http://www.w3.org/TR/2001/REC-SVG-20010904/DTD/svg10.dtd">
<svg version="1.0" xmlns="http://www.w3.org/2000/svg"
 width="1204.000000pt" height="1280.000000pt" viewBox="0 0 1204.000000 1280.000000"
 preserveAspectRatio="xMidYMid meet">
<metadata>
Created by potrace 1.15, written by Peter Selinger 2001-2017
</metadata>
<g transform="translate(0.000000,1280.000000) scale(0.100000,-0.100000)"
fill="#000000" stroke="none">
<path d="M4235 12790 c-718 -50 -1460 -289 -2105 -678 -274 -165 -497 -329
-740 -547 -74 -66 -184 -161 -245 -210 -341 -276 -634 -642 -825 -1030 -161
-327 -245 -602 -296 -975 -25 -175 -25 -602 -1 -790 121 -937 556 -1791 1282
-2515 251 -251 461 -424 728 -600 230 -151 330 -209 537 -314 536 -272 977
-393 1490 -408 678 -19 1305 174 2110 650 211 125 852 535 875 560 6 6 -3 2
-20 -8 -259 -162 -676 -353 -1001 -458 -892 -288 -1763 -258 -2664 93 -233 91
-402 167 -720 327 -412 206 -558 310 -851 602 -329 330 -575 674 -793 1112
-184 367 -302 718 -370 1095 -44 242 -51 333 -50 639 0 245 4 312 22 432 57
378 151 676 318 1013 176 354 450 736 626 873 897 697 2092 856 3396 451 590
-183 1206 -494 1589 -803 626 -503 1230 -1550 1447 -2506 110 -488 124 -965
40 -1380 -42 -208 -131 -457 -230 -644 -122 -231 -241 -388 -454 -602 l-166
-167 101 76 c290 220 501 429 695 687 322 429 512 902 587 1460 24 184 24 657
-1 840 -127 947 -535 1793 -1215 2523 -615 661 -1454 1081 -2376 1188 -156 18
-554 26 -720 14z"/>
<path d="M3205 12134 c-338 -39 -578 -100 -845 -216 -385 -167 -749 -446
-1010 -773 -255 -321 -447 -736 -529 -1145 -74 -373 -74 -787 0 -1180 136
-713 508 -1441 1082 -2115 l106 -124 78 30 c114 44 267 120 358 180 110 72
268 233 328 334 101 171 136 301 144 536 8 252 -20 443 -117 783 -61 214 -103
335 -278 816 -255 702 -343 1008 -382 1340 -21 180 -7 411 36 575 27 103 126
292 199 380 129 155 278 267 500 376 151 73 315 133 490 179 l110 29 -120 -1
c-66 -1 -133 -3 -150 -4z"/>
<path d="M7316 6054 c-124 -45 -345 -177 -502 -300 -89 -69 -190 -174 -218
-226 l-18 -34 154 -154 c481 -483 951 -1139 1827 -2555 779 -1258 982 -1570
1266 -1950 189 -252 285 -366 429 -510 213 -212 349 -296 511 -315 458 -52
829 105 1053 448 129 198 211 485 215 752 2 88 -2 116 -22 175 -117 339 -405
719 -986 1301 -431 431 -789 757 -1810 1644 -1089 946 -1550 1380 -1782 1677
-26 34 -55 62 -63 62 -8 0 -32 -7 -54 -15z"/>
</g>
</svg>
